<?xml version="1.0" encoding="utf-8"?>
<!-- Generator: Adobe Illustrator 16.0.0, SVG Export Plug-In . SVG Version: 6.00 Build 0)  -->
<!DOCTYPE svg PUBLIC "-//W3C//DTD SVG 1.1//EN" "http://www.w3.org/Graphics/SVG/1.1/DTD/svg11.dtd">
<svg version="1.1" id="Capa_1" xmlns="http://www.w3.org/2000/svg" xmlns:xlink="http://www.w3.org/1999/xlink" x="0px" y="0px"
	 width="225.667px" height="53.333px" viewBox="0 0 225.667 53.333" enable-background="new 0 0 225.667 53.333"
	 xml:space="preserve">
<g>
	<path fill="#001689" d="M34.947,28.766c0.433,6.036,5.818,7.268,10.535,7.268c6.29,0,10.339-2.264,10.339-7.109
		c0-2.938-2.004-4.803-7.194-5.52l-5.582-0.754c-2.791-0.397-3.42-1.191-3.42-2.581c0-2.462,2.909-3.177,5.424-3.177
		c4.088,0,6.054,1.787,6.173,3.892h3.93c-0.354-4.051-3.302-6.99-10.063-6.99c-5.778,0-9.395,2.502-9.395,6.711
		c0,3.216,2.634,5.123,5.582,5.52l6.486,0.873c3.145,0.438,3.892,1.311,3.892,2.78c0,1.469-1.218,3.256-6.29,3.256
		c-4.992,0-6.486-2.304-6.486-4.169H34.947z"/>
	<path fill="#001689" d="M81.64,26.106v-0.517c0-8.617-5.739-11.794-11.164-11.794c-8.019,0-11.951,5.123-11.951,11.12
		c0,5.996,3.932,11.119,11.951,11.119c4.049,0,8.648-2.025,10.614-7.029h-4.167c-1.336,2.938-4.403,3.693-6.644,3.693
		c-3.499,0-7.273-2.303-7.587-6.592H81.64L81.64,26.106z M62.811,23.008c0.59-3.733,3.852-5.877,7.469-5.877
		c3.695,0,6.604,2.104,7.194,5.877H62.811z"/>
	<path fill="#CF0A2C" d="M34.394,28.807l-0.042-0.6h4.468v-2.3c-2.078-0.939-3.68-2.748-3.68-5.4c0-2.724,1.373-4.739,3.68-5.948
		V12.21c0-8.613-9.365-10.52-16.843-10.52c-10.974,0-17.888,3.185-18.796,12.433l7.194,0.417c0.209-5.718,5.311-7.343,11.321-7.342
		c5.661,0,10.553,0.988,10.553,6.071c0,3.319-2.444,4.025-6.359,4.448l-7.968,0.848C6.181,19.835,1.574,22.879,1.574,29.657
		c0,4.801,3.349,11.571,15.51,11.571c5.941,0,12.79-2.188,15.586-6.001c0.489,4.165,2.795,5.807,6.29,5.807
		c1.678,0,3.774-0.141,5.451-0.423v-4.04C39.922,36.379,34.829,34.874,34.394,28.807z M17.713,36.047c-5.102,0-8.527-2.4-8.527-5.86
		c0-3.882,2.866-5.365,8.317-6.071l7.897-0.988c3.915-0.495,5.801-0.989,6.849-2.189v4.73h0.001
		C32.25,31.812,25.611,36.047,17.713,36.047z"/>
	<path fill="#001689" d="M86.872,14.51h-4.206v3.097h4.206v17.71h3.931v-17.71h5.817V14.51h-5.817v-2.899
		c0-1.708,1.061-2.025,3.616-2.025c0.708,0,1.455,0.039,2.201,0.08V6.568C95.48,6.449,94.418,6.25,93.2,6.25
		c-3.971,0-6.329,1.31-6.329,5.162L86.872,14.51L86.872,14.51z"/>
	<path fill="#001689" d="M102.388,21.022c0.118-3.216,2.987-4.13,6.368-4.13c3.184,0,5.936,0.556,5.936,3.415
		c0,1.867-1.375,2.264-3.576,2.502l-4.482,0.477C100.03,24,97.79,25.947,97.79,29.758c0,2.701,1.533,6.275,8.373,6.275
		c3.341,0,7.194-1.231,8.767-3.375c0.274,2.342,1.571,2.897,3.536,2.897c0.943,0,2.123-0.08,3.066-0.239v-2.779
		c-0.395,0.082-0.943,0.159-1.375,0.159c-1.221,0-1.771-0.556-1.771-1.786V19.712c0-4.844-5.268-5.917-9.475-5.917
		c-6.171,0-9.709,2.026-10.22,7.228L102.388,21.022L102.388,21.022z M114.691,27.098c0,3.455-3.734,5.837-8.177,5.837
		c-2.869,0-4.796-1.351-4.796-3.296c0-2.184,1.612-3.018,4.678-3.415l4.442-0.556c2.202-0.278,3.263-0.557,3.853-1.231V27.098z"/>
	<path fill="#001689" d="M129.048,32.111c0.103,1.126,0.459,1.987,1.072,2.584c0.61,0.597,1.358,1.005,2.246,1.222
		c0.883,0.217,1.784,0.319,2.704,0.309c1.82,0.003,3.257-0.324,4.308-0.982c1.05-0.658,1.584-1.672,1.604-3.039
		c0.015-0.834-0.301-1.514-0.942-2.037c-0.644-0.522-1.699-0.888-3.168-1.09l-3.194-0.428c-0.78-0.109-1.306-0.283-1.578-0.521
		c-0.271-0.235-0.396-0.551-0.378-0.94c0.011-0.461,0.173-0.823,0.484-1.086c0.312-0.263,0.703-0.448,1.174-0.556
		c0.472-0.108,0.953-0.16,1.445-0.156c1.166,0.017,2.039,0.235,2.616,0.655c0.578,0.42,0.884,0.936,0.913,1.548h2.245
		c-0.086-1.167-0.586-2.113-1.502-2.837c-0.915-0.723-2.332-1.096-4.252-1.117c-1.671,0.009-2.979,0.344-3.927,1.005
		c-0.946,0.661-1.43,1.591-1.445,2.792c0.025,0.913,0.35,1.634,0.962,2.162c0.614,0.526,1.356,0.849,2.229,0.964l3.711,0.494
		c0.881,0.122,1.478,0.311,1.789,0.566c0.313,0.258,0.459,0.592,0.438,1.006c0.031,0.441-0.205,0.854-0.711,1.234
		c-0.506,0.383-1.469,0.585-2.889,0.61c-1.402-0.032-2.379-0.294-2.926-0.784c-0.549-0.491-0.811-1.018-0.785-1.577H129.048z"/>
	<path fill="#001689" d="M155.768,30.602V30.31c-0.021-1.619-0.345-2.918-0.966-3.899c-0.622-0.98-1.418-1.691-2.385-2.129
		c-0.969-0.439-1.979-0.655-3.035-0.646c-1.528,0.015-2.799,0.307-3.812,0.877c-1.011,0.57-1.768,1.329-2.271,2.275
		c-0.502,0.948-0.754,1.996-0.754,3.141c0,1.147,0.252,2.194,0.754,3.142c0.503,0.948,1.26,1.706,2.271,2.276
		c1.013,0.569,2.281,0.862,3.812,0.877c0.783,0.003,1.568-0.13,2.354-0.402c0.785-0.271,1.506-0.7,2.158-1.284
		c0.65-0.586,1.172-1.351,1.561-2.291h-2.385c-0.412,0.814-0.98,1.373-1.705,1.67c-0.727,0.299-1.424,0.439-2.095,0.422
		c-0.683-0.002-1.339-0.145-1.978-0.428c-0.635-0.285-1.17-0.705-1.604-1.259s-0.688-1.237-0.761-2.048h10.838v-0.002H155.768z
		 M144.998,28.851c0.197-1.063,0.691-1.884,1.486-2.458c0.795-0.574,1.725-0.865,2.786-0.872c1.073,0.005,1.981,0.293,2.724,0.864
		c0.741,0.571,1.203,1.393,1.391,2.467L144.998,28.851L144.998,28.851z"/>
	<path fill="#001689" d="M168.619,25.768h-0.045c-0.453-0.672-1.087-1.174-1.898-1.504c-0.811-0.33-1.706-0.495-2.688-0.494
		c-1.063-0.006-2.083,0.195-3.057,0.604c-0.977,0.409-1.773,1.063-2.4,1.958c-0.627,0.896-0.949,2.072-0.973,3.528
		c0.021,1.448,0.346,2.62,0.973,3.514c0.629,0.895,1.432,1.543,2.407,1.953c0.978,0.408,2,0.609,3.069,0.604
		c0.781,0.021,1.576-0.113,2.386-0.407c0.812-0.295,1.536-0.885,2.185-1.771h0.043v1.707c0.019,0.994-0.313,1.828-0.994,2.502
		c-0.682,0.675-1.813,1.024-3.393,1.053c-1.07,0.016-1.939-0.111-2.604-0.385c-0.666-0.271-1.103-0.779-1.31-1.528h-2.245
		c0.176,1.069,0.568,1.871,1.184,2.397c0.615,0.527,1.344,0.875,2.188,1.039c0.846,0.166,1.699,0.241,2.563,0.228
		c2.4,0.017,4.148-0.444,5.24-1.384c1.095-0.938,1.633-2.453,1.615-4.553V24.04h-2.246V25.768L168.619,25.768z M168.619,29.883
		c-0.012,1.236-0.395,2.234-1.149,2.992s-1.819,1.146-3.19,1.168c-1.381-0.021-2.445-0.41-3.197-1.168s-1.133-1.756-1.143-2.992
		c0.01-1.238,0.391-2.247,1.143-3.024c0.752-0.777,1.816-1.179,3.197-1.204c1.371,0.024,2.438,0.426,3.19,1.204
		C168.224,27.637,168.607,28.645,168.619,29.883z"/>
	<path fill="#001689" d="M185.341,24.04h-2.245v6.791c-0.033,1.159-0.423,2.033-1.166,2.623c-0.746,0.588-1.646,0.883-2.703,0.885
		c-1.197-0.006-2.08-0.241-2.646-0.711c-0.566-0.469-0.848-1.139-0.842-2.01V24.04h-2.244v8.026
		c0.027,1.461,0.498,2.522,1.407,3.183c0.911,0.662,2.091,0.985,3.536,0.977c0.861,0.012,1.71-0.146,2.541-0.475
		c0.83-0.33,1.521-0.896,2.068-1.705h0.046v1.773h2.245V24.04H185.341z"/>
	<path fill="#001689" d="M188.085,35.818h2.246v-5.979c0.019-1.282,0.369-2.248,1.055-2.896c0.685-0.647,1.593-0.972,2.724-0.973
		c0.298,0.001,0.568,0.022,0.813,0.062c0.246,0.04,0.509,0.095,0.781,0.163V23.77c-0.205-0.055-0.401-0.091-0.59-0.11
		c-0.189-0.018-0.421-0.027-0.691-0.025c-0.752-0.01-1.479,0.184-2.184,0.582c-0.705,0.396-1.324,1.057-1.863,1.979h-0.045V24.04
		h-2.246V35.818z"/>
	<path fill="#001689" d="M196.708,29.929c-0.002,1.146,0.25,2.194,0.75,3.141c0.504,0.947,1.26,1.706,2.271,2.276
		c1.013,0.568,2.283,0.861,3.812,0.877c1.528-0.016,2.799-0.309,3.812-0.877c1.012-0.57,1.771-1.329,2.271-2.276
		c0.502-0.946,0.752-1.995,0.752-3.141c0-1.147-0.25-2.194-0.752-3.142c-0.502-0.947-1.26-1.706-2.271-2.275
		c-1.013-0.57-2.281-0.862-3.812-0.877c-1.526,0.015-2.799,0.307-3.812,0.877c-1.013,0.57-1.771,1.329-2.271,2.275
		C196.958,27.735,196.707,28.782,196.708,29.929z M207.994,29.929c0.006,0.727-0.139,1.425-0.43,2.092
		c-0.291,0.668-0.766,1.217-1.42,1.647c-0.652,0.431-1.521,0.651-2.604,0.668c-1.082-0.017-1.949-0.237-2.604-0.668
		c-0.653-0.432-1.128-0.979-1.42-1.647c-0.291-0.667-0.437-1.366-0.431-2.092c-0.006-0.728,0.14-1.425,0.431-2.093
		c0.292-0.668,0.767-1.217,1.42-1.647c0.653-0.431,1.522-0.653,2.604-0.668c1.082,0.015,1.951,0.238,2.604,0.668
		c0.654,0.43,1.129,0.979,1.42,1.647S208,29.202,207.994,29.929z"/>
	<path fill="#001689" d="M211.919,32.111c0.103,1.126,0.459,1.987,1.072,2.584c0.612,0.597,1.36,1.005,2.243,1.222
		c0.888,0.217,1.789,0.319,2.707,0.309c1.822,0.003,3.257-0.324,4.308-0.982c1.049-0.658,1.584-1.672,1.604-3.039
		c0.017-0.834-0.299-1.514-0.942-2.037c-0.644-0.522-1.699-0.888-3.168-1.09l-3.193-0.428c-0.78-0.109-1.307-0.283-1.577-0.521
		c-0.271-0.235-0.397-0.551-0.382-0.94c0.013-0.461,0.175-0.823,0.486-1.086c0.312-0.263,0.703-0.448,1.174-0.556
		c0.474-0.108,0.953-0.16,1.444-0.156c1.166,0.017,2.039,0.235,2.617,0.655s0.883,0.936,0.914,1.548h2.244
		c-0.086-1.167-0.586-2.113-1.502-2.837c-0.914-0.723-2.332-1.096-4.253-1.117c-1.67,0.009-2.979,0.344-3.926,1.005
		c-0.944,0.661-1.431,1.591-1.444,2.792c0.026,0.913,0.348,1.634,0.963,2.162c0.612,0.526,1.356,0.849,2.228,0.964l3.711,0.494
		c0.881,0.122,1.478,0.311,1.789,0.566c0.313,0.258,0.459,0.592,0.438,1.006c0.031,0.441-0.205,0.854-0.711,1.234
		c-0.504,0.383-1.469,0.585-2.889,0.61c-1.402-0.032-2.379-0.294-2.926-0.784c-0.549-0.491-0.809-1.018-0.785-1.577H211.919z"/>
</g>
<g>
	<path fill="#001689" d="M2.23,47.934c-0.007,0.166,0.016,0.363,0.056,0.607c0.047,0.235,0.166,0.48,0.347,0.717
		c0.181,0.236,0.473,0.439,0.874,0.6c0.41,0.165,0.969,0.243,1.678,0.251c0.71-0.008,1.269-0.086,1.679-0.251
		c0.402-0.158,0.693-0.363,0.875-0.6c0.182-0.235,0.299-0.48,0.347-0.717c0.04-0.244,0.063-0.441,0.056-0.607v-3.607H6.611v3.23
		c0.008,0.188-0.008,0.4-0.055,0.63c-0.047,0.228-0.173,0.426-0.377,0.591c-0.205,0.165-0.536,0.253-0.994,0.26
		c-0.457-0.007-0.787-0.095-0.993-0.26c-0.205-0.165-0.331-0.363-0.377-0.591c-0.048-0.229-0.063-0.44-0.055-0.63v-3.23H2.23V47.934
		z M13.25,49.952h1.386V47.14c-0.008-0.41-0.11-0.726-0.308-0.946c-0.205-0.223-0.441-0.378-0.717-0.458
		c-0.275-0.086-0.535-0.118-0.788-0.118c-0.41,0.01-0.772,0.088-1.072,0.229c-0.307,0.147-0.521,0.307-0.654,0.495h-0.016v-0.613
		H9.743v4.223h1.387v-2.041c0.008-0.439,0.126-0.756,0.355-0.943c0.221-0.189,0.504-0.284,0.835-0.276
		c0.315,0,0.544,0.07,0.701,0.212c0.15,0.143,0.229,0.361,0.229,0.655V49.952z M19.824,48.243c-0.008,0.237-0.079,0.434-0.228,0.582
		c-0.151,0.158-0.331,0.275-0.56,0.355c-0.221,0.07-0.457,0.109-0.694,0.109c-0.267,0-0.472-0.057-0.63-0.156
		c-0.157-0.096-0.244-0.245-0.244-0.434c0-0.189,0.063-0.324,0.181-0.41c0.126-0.08,0.307-0.127,0.551-0.149l0.803-0.071
		c0.142-0.008,0.276-0.023,0.418-0.047c0.134-0.023,0.268-0.07,0.401-0.134v0.354H19.824z M17.595,47.021
		c0.094-0.284,0.229-0.457,0.402-0.536c0.173-0.07,0.401-0.104,0.693-0.096c0.395,0,0.677,0.041,0.843,0.127
		c0.166,0.08,0.253,0.205,0.245,0.378c0,0.167-0.039,0.276-0.126,0.332c-0.086,0.062-0.228,0.094-0.441,0.108l-1.474,0.104
		c-0.283,0.006-0.559,0.054-0.828,0.133c-0.267,0.07-0.479,0.196-0.653,0.386c-0.174,0.183-0.26,0.44-0.268,0.781
		c0.008,0.486,0.181,0.834,0.528,1.055c0.338,0.213,0.788,0.322,1.347,0.314c0.213,0,0.442-0.016,0.686-0.055
		c0.244-0.031,0.481-0.096,0.709-0.184c0.228-0.093,0.425-0.209,0.583-0.367c0.008,0.078,0.016,0.148,0.031,0.22
		c0.016,0.08,0.04,0.147,0.063,0.229h1.387c-0.047-0.103-0.087-0.229-0.118-0.371c-0.023-0.134-0.04-0.3-0.04-0.48v-2.096
		c0.008-0.269-0.056-0.504-0.182-0.724c-0.133-0.214-0.37-0.387-0.725-0.514c-0.346-0.125-0.85-0.197-1.504-0.197
		c-0.386-0.008-0.757,0.023-1.119,0.087c-0.355,0.063-0.662,0.205-0.907,0.41c-0.251,0.206-0.409,0.528-0.472,0.953L17.595,47.021
		L17.595,47.021z M30.015,48.69c-0.102,0.182-0.245,0.316-0.441,0.41c-0.189,0.095-0.426,0.143-0.709,0.143
		c-0.315-0.009-0.576-0.063-0.772-0.173c-0.197-0.11-0.347-0.245-0.441-0.401c-0.094-0.157-0.142-0.299-0.142-0.442v-0.017h4.066
		v-0.125c0-0.806-0.22-1.418-0.669-1.853c-0.45-0.435-1.127-0.653-2.041-0.662c-0.851-0.008-1.52,0.173-2.017,0.536
		c-0.505,0.361-0.757,0.946-0.772,1.734c0.016,0.785,0.268,1.369,0.772,1.731c0.497,0.362,1.166,0.543,2.017,0.535
		c0.638,0,1.19-0.11,1.639-0.33c0.457-0.229,0.788-0.592,0.993-1.089h-1.483V48.69z M27.509,47.391v-0.016
		c-0.008-0.049,0.032-0.142,0.103-0.293c0.07-0.142,0.197-0.289,0.394-0.424c0.189-0.144,0.464-0.215,0.828-0.222
		c0.338,0.007,0.599,0.071,0.788,0.188c0.197,0.127,0.331,0.261,0.41,0.402c0.079,0.15,0.111,0.26,0.111,0.348v0.016H27.509z
		 M39.514,49.952H40.9V47.09c-0.009-0.369-0.087-0.66-0.244-0.875c-0.158-0.221-0.371-0.368-0.623-0.463
		c-0.252-0.096-0.52-0.135-0.811-0.135c-0.386,0-0.726,0.07-1.017,0.213c-0.292,0.135-0.536,0.33-0.725,0.584
		c-0.103-0.246-0.276-0.437-0.504-0.576c-0.236-0.143-0.552-0.221-0.954-0.221c-0.41,0.01-0.772,0.086-1.072,0.229
		c-0.307,0.148-0.52,0.307-0.653,0.494h-0.016v-0.612h-1.339v4.224h1.387v-2.285c0.008-0.332,0.11-0.576,0.307-0.739
		c0.205-0.159,0.458-0.237,0.756-0.237c0.205-0.008,0.395,0.047,0.56,0.15c0.174,0.102,0.268,0.3,0.275,0.574v2.537h1.387v-2.285
		c0.008-0.332,0.11-0.576,0.308-0.739c0.197-0.159,0.448-0.237,0.74-0.237c0.213-0.008,0.402,0.047,0.576,0.15
		c0.173,0.102,0.268,0.3,0.276,0.574V49.952z M43.842,47.864c0.008-0.4,0.141-0.709,0.386-0.914
		c0.252-0.205,0.559-0.308,0.914-0.308c0.363,0,0.67,0.103,0.914,0.308c0.252,0.205,0.386,0.514,0.394,0.914
		c-0.007,0.402-0.142,0.708-0.394,0.914c-0.244,0.205-0.551,0.309-0.914,0.309c-0.354,0-0.662-0.104-0.914-0.309
		C43.983,48.572,43.85,48.266,43.842,47.864L43.842,47.864z M42.502,51.519h1.387V49.48h0.016c0.133,0.188,0.338,0.347,0.623,0.456
		c0.275,0.111,0.606,0.173,1.001,0.173c0.449,0,0.85-0.095,1.205-0.282c0.347-0.188,0.63-0.449,0.835-0.789
		c0.205-0.338,0.308-0.74,0.315-1.195c-0.008-0.498-0.118-0.907-0.331-1.237c-0.214-0.321-0.505-0.577-0.875-0.741
		c-0.37-0.166-0.78-0.244-1.244-0.244c-0.292-0.008-0.559,0.039-0.813,0.135c-0.251,0.086-0.504,0.273-0.764,0.552h-0.015v-0.575
		h-1.34V51.519z M49.29,49.952h1.387v-1.818c0-0.41,0.11-0.733,0.339-0.963c0.236-0.221,0.583-0.338,1.055-0.338
		c0.126,0,0.26,0.017,0.386,0.039s0.252,0.049,0.378,0.088v-1.301c-0.079-0.016-0.166-0.022-0.252-0.031
		c-0.087-0.01-0.173-0.01-0.252-0.01c-0.385,0-0.701,0.071-0.953,0.229c-0.245,0.147-0.489,0.386-0.732,0.71H50.63v-0.828h-1.34
		V49.952z M57.742,48.69c-0.102,0.182-0.244,0.316-0.441,0.41c-0.188,0.095-0.425,0.143-0.709,0.143
		c-0.314-0.009-0.575-0.063-0.772-0.173c-0.197-0.11-0.346-0.245-0.441-0.401c-0.094-0.157-0.142-0.299-0.142-0.442v-0.017h4.066
		v-0.125c0-0.806-0.221-1.418-0.669-1.853c-0.449-0.435-1.126-0.653-2.041-0.662c-0.851-0.008-1.521,0.173-2.017,0.536
		c-0.504,0.361-0.756,0.946-0.772,1.734c0.016,0.785,0.268,1.369,0.772,1.731c0.497,0.362,1.167,0.543,2.017,0.535
		c0.639,0,1.19-0.11,1.64-0.33c0.457-0.229,0.788-0.592,0.993-1.089h-1.484V48.69z M55.236,47.391v-0.016
		c-0.008-0.049,0.032-0.142,0.103-0.293c0.071-0.142,0.197-0.289,0.394-0.424c0.189-0.144,0.465-0.215,0.827-0.222
		c0.34,0.007,0.599,0.071,0.789,0.188c0.197,0.127,0.331,0.261,0.41,0.402c0.078,0.15,0.11,0.26,0.11,0.348v0.016H55.236z
		 M60.425,48.643c0.031,0.498,0.259,0.867,0.669,1.111c0.41,0.235,1.017,0.354,1.813,0.354c0.41,0.008,0.819-0.021,1.213-0.095
		c0.394-0.063,0.725-0.195,0.985-0.401c0.26-0.212,0.402-0.521,0.41-0.931c0.007-0.361-0.126-0.652-0.403-0.866
		c-0.283-0.211-0.772-0.361-1.465-0.434l-0.962-0.104c-0.291-0.029-0.48-0.076-0.574-0.148c-0.095-0.063-0.134-0.149-0.127-0.244
		c0.008-0.135,0.055-0.236,0.158-0.299c0.095-0.071,0.213-0.11,0.354-0.127c0.134-0.017,0.269-0.022,0.395-0.022
		c0.212-0.008,0.41,0.031,0.59,0.119c0.182,0.077,0.3,0.229,0.347,0.438h1.528c-0.023-0.267-0.11-0.504-0.26-0.715
		c-0.142-0.222-0.394-0.387-0.748-0.514c-0.347-0.125-0.852-0.197-1.49-0.197c-0.394,0-0.764,0.031-1.111,0.11
		c-0.347,0.087-0.63,0.229-0.851,0.434c-0.228,0.206-0.339,0.496-0.347,0.874c0,0.395,0.126,0.678,0.362,0.86
		c0.237,0.173,0.583,0.282,1.024,0.338l1.261,0.174c0.323,0.046,0.544,0.093,0.646,0.158c0.103,0.062,0.149,0.147,0.142,0.267
		c0,0.157-0.087,0.269-0.26,0.348c-0.182,0.07-0.425,0.109-0.741,0.109c-0.354,0-0.606-0.056-0.764-0.164
		c-0.15-0.104-0.244-0.254-0.268-0.436h-1.526V48.643z M70.459,48.243c-0.008,0.237-0.079,0.434-0.228,0.582
		c-0.15,0.158-0.332,0.275-0.56,0.355c-0.221,0.07-0.457,0.109-0.693,0.109c-0.268,0-0.472-0.057-0.631-0.156
		c-0.157-0.096-0.244-0.245-0.244-0.434c0-0.189,0.063-0.324,0.181-0.41c0.126-0.08,0.307-0.127,0.552-0.149l0.804-0.071
		c0.142-0.008,0.275-0.023,0.417-0.047c0.134-0.023,0.269-0.07,0.402-0.134V48.243L70.459,48.243z M68.23,47.021
		c0.094-0.284,0.229-0.457,0.402-0.536c0.172-0.07,0.401-0.104,0.693-0.096c0.394,0,0.677,0.041,0.844,0.127
		c0.165,0.08,0.251,0.205,0.243,0.378c0,0.167-0.039,0.276-0.125,0.332c-0.086,0.062-0.229,0.094-0.44,0.108l-1.474,0.104
		c-0.284,0.006-0.56,0.054-0.827,0.133c-0.268,0.07-0.481,0.196-0.654,0.386c-0.173,0.183-0.259,0.44-0.268,0.781
		c0.008,0.486,0.181,0.834,0.527,1.055c0.339,0.213,0.787,0.322,1.348,0.314c0.212,0,0.44-0.016,0.686-0.055
		c0.244-0.031,0.481-0.096,0.708-0.184c0.229-0.093,0.426-0.209,0.584-0.367c0.008,0.078,0.016,0.148,0.031,0.22
		c0.016,0.08,0.039,0.147,0.063,0.229h1.387c-0.046-0.103-0.087-0.229-0.119-0.371c-0.023-0.134-0.04-0.3-0.04-0.48v-2.096
		c0.009-0.269-0.055-0.504-0.181-0.724c-0.134-0.214-0.371-0.387-0.725-0.514c-0.347-0.125-0.851-0.197-1.504-0.197
		c-0.386-0.008-0.756,0.023-1.12,0.087c-0.354,0.063-0.661,0.205-0.906,0.41c-0.252,0.206-0.409,0.528-0.473,0.953L68.23,47.021
		L68.23,47.021z M78.184,47.864c0.007-0.4,0.142-0.709,0.394-0.914c0.245-0.205,0.552-0.308,0.914-0.308
		c0.354,0,0.662,0.103,0.914,0.308c0.245,0.205,0.379,0.514,0.387,0.914c-0.008,0.402-0.142,0.708-0.387,0.914
		c-0.251,0.205-0.56,0.309-0.914,0.309c-0.362,0-0.669-0.104-0.914-0.309C78.326,48.572,78.191,48.266,78.184,47.864L78.184,47.864z
		 M80.792,49.952h1.339v-5.72h-1.387v2.017h-0.016c-0.134-0.188-0.338-0.345-0.622-0.457c-0.275-0.109-0.606-0.174-1.001-0.174
		c-0.449,0-0.851,0.096-1.205,0.286c-0.347,0.188-0.63,0.446-0.835,0.786c-0.205,0.339-0.307,0.742-0.315,1.198
		c0.008,0.487,0.11,0.897,0.315,1.229c0.212,0.329,0.488,0.572,0.843,0.739c0.354,0.165,0.756,0.251,1.197,0.251
		c0.316,0.008,0.615-0.039,0.908-0.143c0.283-0.096,0.535-0.275,0.764-0.543h0.016L80.792,49.952L80.792,49.952z M87.438,48.69
		c-0.103,0.182-0.244,0.316-0.441,0.41c-0.189,0.095-0.426,0.143-0.709,0.143c-0.315-0.009-0.576-0.063-0.772-0.173
		c-0.197-0.11-0.347-0.245-0.441-0.401c-0.094-0.157-0.142-0.299-0.142-0.442v-0.017h4.065v-0.125c0-0.806-0.22-1.418-0.669-1.853
		c-0.449-0.435-1.127-0.653-2.041-0.662c-0.851-0.008-1.521,0.173-2.018,0.536c-0.504,0.361-0.756,0.946-0.772,1.734
		c0.016,0.785,0.268,1.369,0.772,1.731c0.497,0.362,1.167,0.543,2.018,0.535c0.637,0,1.189-0.11,1.638-0.33
		c0.458-0.229,0.788-0.592,0.994-1.089h-1.482V48.69z M84.933,47.391v-0.016c-0.008-0.049,0.032-0.142,0.102-0.293
		c0.072-0.142,0.198-0.289,0.395-0.424c0.188-0.144,0.464-0.215,0.827-0.222c0.338,0.007,0.599,0.071,0.788,0.188
		c0.196,0.127,0.331,0.261,0.409,0.402c0.079,0.15,0.111,0.26,0.111,0.348v0.016H84.933z M90.365,49.952h1.387v-5.72h-1.387V49.952z
		 M100.557,47.793h1.364c-0.094,0.457-0.292,0.777-0.584,0.969c-0.299,0.188-0.654,0.283-1.079,0.275
		c-0.458-0.008-0.827-0.104-1.103-0.299c-0.276-0.189-0.474-0.435-0.591-0.718c-0.126-0.292-0.181-0.582-0.181-0.882
		c0-0.301,0.055-0.592,0.181-0.885c0.118-0.284,0.315-0.526,0.591-0.715c0.276-0.199,0.646-0.293,1.103-0.301
		c0.283-0.009,0.567,0.055,0.835,0.188c0.276,0.142,0.472,0.387,0.598,0.739h1.702c-0.102-0.512-0.307-0.912-0.63-1.203
		c-0.331-0.293-0.725-0.498-1.189-0.623c-0.466-0.118-0.961-0.174-1.489-0.174c-0.709,0.008-1.317,0.135-1.804,0.386
		c-0.497,0.253-0.875,0.599-1.135,1.04c-0.252,0.439-0.385,0.963-0.385,1.546c0.007,1.039,0.307,1.795,0.897,2.269
		c0.583,0.471,1.395,0.709,2.427,0.7c0.497,0,0.945-0.062,1.347-0.188c0.41-0.133,0.75-0.338,1.017-0.621l0.205,0.652h0.771v-3.136
		h-2.868V47.793z M105.028,49.952h1.387v-1.818c0-0.41,0.11-0.733,0.338-0.963c0.236-0.221,0.584-0.338,1.056-0.338
		c0.125,0,0.26,0.017,0.386,0.039s0.252,0.049,0.378,0.088v-1.301c-0.079-0.016-0.166-0.022-0.252-0.031
		c-0.086-0.01-0.173-0.01-0.252-0.01c-0.385,0-0.701,0.071-0.954,0.229c-0.244,0.147-0.488,0.386-0.732,0.71h-0.015v-0.828h-1.34
		V49.952z M113.331,49.952h1.338v-4.223h-1.385v2.111c0,0.393-0.102,0.687-0.308,0.892c-0.196,0.203-0.488,0.306-0.866,0.306
		c-0.315,0-0.559-0.07-0.709-0.213c-0.158-0.143-0.237-0.363-0.237-0.652V45.73h-1.386v2.858c0.008,0.41,0.109,0.726,0.307,0.945
		c0.206,0.221,0.441,0.379,0.716,0.457c0.277,0.088,0.537,0.118,0.79,0.118c0.409-0.008,0.771-0.086,1.07-0.229
		c0.307-0.147,0.521-0.305,0.654-0.493h0.016V49.952z M117.614,47.864c0.009-0.4,0.142-0.709,0.386-0.914
		c0.252-0.205,0.561-0.308,0.914-0.308c0.361,0,0.668,0.103,0.914,0.308c0.252,0.205,0.385,0.514,0.394,0.914
		c-0.009,0.402-0.142,0.708-0.394,0.914c-0.246,0.205-0.553,0.309-0.914,0.309c-0.354,0-0.662-0.104-0.914-0.309
		C117.753,48.572,117.623,48.266,117.614,47.864L117.614,47.864z M116.274,51.519h1.386V49.48h0.016
		c0.136,0.188,0.341,0.347,0.623,0.456c0.275,0.111,0.609,0.173,1.002,0.173c0.447,0,0.851-0.095,1.203-0.282
		c0.349-0.188,0.633-0.449,0.838-0.789c0.203-0.338,0.306-0.74,0.313-1.195c-0.009-0.498-0.118-0.907-0.329-1.237
		c-0.214-0.321-0.506-0.577-0.877-0.741c-0.369-0.166-0.779-0.244-1.244-0.244c-0.291-0.008-0.561,0.039-0.813,0.135
		c-0.251,0.086-0.504,0.273-0.764,0.552h-0.016v-0.575h-1.34L116.274,51.519L116.274,51.519z M122.864,47.84
		c0.017,0.787,0.269,1.369,0.772,1.732c0.496,0.362,1.167,0.543,2.018,0.535c0.852,0.008,1.521-0.173,2.018-0.535
		c0.504-0.363,0.757-0.945,0.771-1.732c-0.016-0.787-0.27-1.371-0.771-1.733c-0.496-0.362-1.166-0.544-2.018-0.536
		c-0.851-0.008-1.521,0.174-2.018,0.536C123.132,46.469,122.878,47.053,122.864,47.84L122.864,47.84z M124.298,47.84
		c0-0.418,0.117-0.733,0.354-0.954c0.236-0.228,0.566-0.337,1.001-0.337s0.765,0.109,0.999,0.337
		c0.237,0.221,0.355,0.536,0.355,0.954s-0.118,0.73-0.355,0.953c-0.234,0.229-0.564,0.34-0.999,0.34s-0.765-0.11-1.001-0.34
		C124.416,48.572,124.298,48.258,124.298,47.84L124.298,47.84z M137.121,47.769h-1.766l0.883-2.229L137.121,47.769z M137.986,49.952
		h1.646l-2.475-5.625h-1.843l-2.476,5.625h1.646l0.458-1.156h2.585L137.986,49.952z M140.41,48.643
		c0.032,0.498,0.26,0.867,0.67,1.111c0.409,0.235,1.017,0.354,1.813,0.354c0.408,0.008,0.818-0.021,1.212-0.095
		c0.394-0.063,0.726-0.195,0.985-0.401c0.261-0.212,0.402-0.521,0.408-0.931c0.008-0.361-0.125-0.652-0.4-0.866
		c-0.284-0.211-0.771-0.361-1.467-0.434l-0.961-0.104c-0.291-0.029-0.479-0.076-0.574-0.148c-0.094-0.063-0.135-0.149-0.127-0.244
		c0.009-0.135,0.057-0.236,0.158-0.299c0.095-0.071,0.213-0.11,0.354-0.127c0.135-0.017,0.27-0.022,0.395-0.022
		c0.211-0.008,0.41,0.031,0.592,0.119c0.182,0.077,0.299,0.229,0.347,0.438h1.528c-0.022-0.267-0.109-0.504-0.26-0.715
		c-0.143-0.222-0.396-0.387-0.75-0.514c-0.346-0.125-0.851-0.197-1.488-0.197c-0.395,0-0.766,0.031-1.11,0.11
		c-0.347,0.087-0.63,0.229-0.853,0.434c-0.229,0.206-0.338,0.496-0.346,0.874c0,0.395,0.125,0.678,0.363,0.86
		c0.237,0.173,0.582,0.282,1.021,0.338l1.263,0.174c0.321,0.046,0.544,0.093,0.646,0.158c0.104,0.062,0.15,0.147,0.144,0.267
		c0,0.157-0.087,0.269-0.261,0.348c-0.182,0.07-0.426,0.109-0.74,0.109c-0.355,0-0.607-0.056-0.766-0.164
		c-0.147-0.104-0.244-0.254-0.269-0.436h-1.526V48.643z M150.562,48.69c-0.104,0.182-0.244,0.316-0.439,0.41
		c-0.19,0.095-0.428,0.143-0.711,0.143c-0.314-0.009-0.574-0.063-0.772-0.173c-0.195-0.11-0.347-0.245-0.438-0.401
		c-0.096-0.157-0.143-0.299-0.143-0.442v-0.017h4.064v-0.125c0-0.806-0.221-1.418-0.668-1.853c-0.451-0.435-1.129-0.653-2.043-0.662
		c-0.851-0.008-1.521,0.173-2.018,0.536c-0.503,0.361-0.756,0.946-0.771,1.734c0.017,0.785,0.27,1.369,0.771,1.731
		c0.497,0.362,1.167,0.543,2.018,0.535c0.639,0,1.189-0.11,1.639-0.33c0.457-0.229,0.789-0.592,0.994-1.089h-1.482V48.69z
		 M148.057,47.391v-0.016c-0.011-0.049,0.03-0.142,0.103-0.293c0.069-0.142,0.196-0.289,0.395-0.424
		c0.189-0.144,0.465-0.215,0.828-0.222c0.337,0.007,0.598,0.071,0.787,0.188c0.195,0.127,0.33,0.261,0.408,0.402
		c0.078,0.15,0.11,0.26,0.11,0.348v0.016H148.057z M154.726,47.752c0.008-0.32,0.07-0.558,0.206-0.731
		c0.133-0.166,0.307-0.284,0.504-0.339c0.205-0.064,0.409-0.096,0.614-0.086c0.212-0.01,0.416,0.021,0.621,0.086
		c0.199,0.055,0.371,0.173,0.504,0.339c0.135,0.175,0.197,0.411,0.205,0.731c-0.008,0.324-0.07,0.561-0.205,0.734
		c-0.133,0.164-0.305,0.282-0.504,0.338c-0.205,0.063-0.409,0.094-0.621,0.086c-0.205,0.008-0.409-0.022-0.614-0.086
		c-0.197-0.056-0.371-0.174-0.504-0.338C154.796,48.313,154.734,48.077,154.726,47.752L154.726,47.752z M157.429,46.241h-0.016
		c-0.188-0.221-0.426-0.378-0.711-0.479c-0.283-0.095-0.582-0.144-0.896-0.144c-0.582,0.01-1.064,0.104-1.436,0.293
		c-0.369,0.188-0.646,0.439-0.818,0.764c-0.172,0.314-0.26,0.67-0.26,1.057c0,0.37,0.088,0.709,0.252,1.032
		c0.172,0.315,0.441,0.573,0.797,0.771c0.354,0.197,0.802,0.301,1.354,0.309c0.354,0,0.671-0.047,0.96-0.15
		c0.283-0.094,0.529-0.25,0.727-0.473v0.339c0,0.34-0.063,0.593-0.182,0.767c-0.109,0.18-0.269,0.297-0.455,0.354
		c-0.197,0.063-0.41,0.094-0.64,0.086c-0.396,0-0.678-0.048-0.853-0.136c-0.164-0.086-0.267-0.219-0.308-0.394h-1.481
		c0.057,0.416,0.229,0.726,0.506,0.929c0.273,0.198,0.607,0.332,0.984,0.388s0.748,0.087,1.102,0.077
		c0.883,0.01,1.563-0.148,2.02-0.465c0.457-0.315,0.692-0.826,0.692-1.552v-3.884h-1.339V46.241L157.429,46.241z M163.832,49.952
		h1.34v-4.223h-1.389v2.111c0,0.393-0.1,0.687-0.305,0.892c-0.198,0.203-0.49,0.306-0.868,0.306c-0.313,0-0.56-0.07-0.71-0.213
		c-0.156-0.143-0.236-0.363-0.236-0.652V45.73h-1.386v2.858c0.009,0.41,0.11,0.726,0.308,0.945c0.205,0.221,0.44,0.379,0.717,0.457
		c0.275,0.088,0.535,0.118,0.787,0.118c0.41-0.008,0.772-0.086,1.072-0.229c0.309-0.147,0.521-0.305,0.654-0.493h0.016V49.952
		L163.832,49.952z M166.774,49.952h1.39v-1.818c0-0.41,0.107-0.733,0.338-0.963c0.234-0.221,0.582-0.338,1.055-0.338
		c0.126,0,0.262,0.017,0.386,0.039c0.127,0.022,0.254,0.049,0.379,0.088v-1.301c-0.079-0.016-0.166-0.022-0.252-0.031
		c-0.087-0.01-0.174-0.01-0.251-0.01c-0.387,0-0.701,0.071-0.954,0.229c-0.243,0.147-0.489,0.386-0.731,0.71h-0.016v-0.828h-1.342
		L166.774,49.952L166.774,49.952z M175.108,48.243c-0.008,0.237-0.079,0.434-0.228,0.582c-0.15,0.158-0.332,0.275-0.56,0.355
		c-0.223,0.07-0.459,0.109-0.694,0.109c-0.268,0-0.474-0.057-0.629-0.156c-0.16-0.096-0.246-0.245-0.246-0.434
		c0-0.189,0.063-0.324,0.182-0.41c0.125-0.08,0.307-0.127,0.551-0.149l0.807-0.071c0.142-0.008,0.273-0.023,0.416-0.047
		c0.135-0.023,0.27-0.07,0.401-0.134V48.243L175.108,48.243z M172.876,47.021c0.096-0.284,0.229-0.457,0.402-0.536
		c0.174-0.07,0.402-0.104,0.692-0.096c0.396,0,0.68,0.041,0.844,0.127c0.165,0.08,0.253,0.205,0.245,0.378
		c0,0.167-0.04,0.276-0.126,0.332c-0.087,0.062-0.229,0.094-0.44,0.108l-1.474,0.104c-0.285,0.006-0.562,0.054-0.829,0.133
		c-0.27,0.07-0.479,0.196-0.654,0.386c-0.172,0.183-0.26,0.44-0.268,0.781c0.008,0.486,0.182,0.834,0.527,1.055
		c0.34,0.213,0.789,0.322,1.35,0.314c0.213,0,0.439-0.016,0.686-0.055c0.244-0.031,0.48-0.096,0.709-0.184
		c0.228-0.093,0.426-0.209,0.582-0.367c0.008,0.078,0.018,0.148,0.031,0.22c0.016,0.08,0.041,0.147,0.063,0.229h1.386
		c-0.045-0.103-0.084-0.229-0.115-0.371c-0.024-0.134-0.04-0.3-0.04-0.48v-2.096c0.008-0.269-0.057-0.504-0.182-0.724
		c-0.135-0.214-0.37-0.387-0.725-0.514c-0.347-0.125-0.852-0.197-1.506-0.197c-0.386-0.008-0.757,0.023-1.119,0.087
		c-0.354,0.063-0.66,0.205-0.904,0.41c-0.254,0.206-0.41,0.528-0.475,0.953L172.876,47.021L172.876,47.021z M179.255,47.864
		c0.009-0.4,0.143-0.709,0.396-0.914c0.244-0.205,0.552-0.308,0.914-0.308c0.354,0,0.661,0.103,0.913,0.308
		c0.245,0.205,0.379,0.514,0.387,0.914c-0.008,0.402-0.142,0.708-0.387,0.914c-0.252,0.205-0.561,0.309-0.913,0.309
		c-0.362,0-0.67-0.104-0.914-0.309C179.398,48.572,179.264,48.266,179.255,47.864L179.255,47.864z M181.865,49.952h1.34v-5.72
		h-1.388v2.017h-0.015c-0.135-0.188-0.342-0.345-0.623-0.457c-0.276-0.109-0.605-0.174-1.002-0.174c-0.446,0-0.85,0.096-1.203,0.286
		c-0.35,0.188-0.633,0.446-0.836,0.786c-0.206,0.339-0.307,0.742-0.314,1.198c0.008,0.487,0.108,0.897,0.314,1.229
		c0.212,0.329,0.486,0.572,0.844,0.739c0.354,0.165,0.756,0.251,1.195,0.251c0.316,0.008,0.615-0.039,0.906-0.143
		c0.285-0.096,0.537-0.275,0.766-0.543h0.016V49.952z M184.611,47.84c0.018,0.787,0.27,1.369,0.771,1.732
		c0.498,0.362,1.166,0.543,2.019,0.535c0.851,0.008,1.521-0.173,2.019-0.535c0.504-0.363,0.756-0.945,0.77-1.732
		c-0.014-0.787-0.266-1.371-0.77-1.733c-0.498-0.362-1.168-0.544-2.019-0.536c-0.853-0.008-1.521,0.174-2.019,0.536
		C184.878,46.469,184.626,47.053,184.611,47.84L184.611,47.84z M186.044,47.84c0-0.418,0.119-0.733,0.354-0.954
		c0.235-0.228,0.565-0.337,1.001-0.337c0.432,0,0.764,0.109,1,0.337c0.237,0.221,0.355,0.536,0.355,0.954s-0.118,0.73-0.355,0.953
		c-0.236,0.229-0.568,0.34-1,0.34c-0.436,0-0.766-0.11-1.001-0.34C186.164,48.572,186.044,48.258,186.044,47.84L186.044,47.84z
		 M191.597,49.952h1.385v-1.818c0-0.41,0.109-0.733,0.34-0.963c0.236-0.221,0.583-0.338,1.057-0.338c0.125,0,0.26,0.017,0.386,0.039
		c0.127,0.022,0.252,0.049,0.378,0.088v-1.301c-0.079-0.016-0.165-0.022-0.251-0.031c-0.087-0.01-0.175-0.01-0.253-0.01
		c-0.385,0-0.7,0.071-0.954,0.229c-0.244,0.147-0.488,0.386-0.731,0.71h-0.016v-0.828h-1.339L191.597,49.952L191.597,49.952z
		 M205.483,45.958c-0.03-0.395-0.149-0.709-0.349-0.953c-0.196-0.235-0.447-0.418-0.746-0.536c-0.301-0.125-0.615-0.204-0.947-0.243
		c-0.33-0.04-0.646-0.057-0.938-0.057c-0.891-0.008-1.575,0.136-2.058,0.41c-0.479,0.283-0.725,0.733-0.731,1.355
		c0.008,0.378,0.103,0.677,0.285,0.891c0.18,0.211,0.416,0.371,0.709,0.479c0.283,0.103,0.6,0.174,0.929,0.221l1.396,0.213
		c0.307,0.039,0.543,0.111,0.701,0.196c0.165,0.088,0.25,0.236,0.25,0.449c-0.006,0.244-0.117,0.418-0.33,0.535
		c-0.221,0.111-0.511,0.166-0.874,0.166c-0.229,0-0.448-0.016-0.67-0.063c-0.213-0.049-0.401-0.135-0.544-0.27
		c-0.148-0.127-0.229-0.322-0.234-0.574h-1.717c0.006,0.434,0.107,0.779,0.305,1.039c0.197,0.262,0.457,0.459,0.772,0.585
		c0.308,0.124,0.654,0.211,1.017,0.251c0.363,0.04,0.726,0.055,1.071,0.055c0.733-0.008,1.315-0.086,1.742-0.259
		c0.424-0.167,0.731-0.396,0.914-0.679c0.181-0.283,0.274-0.601,0.269-0.953c-0.011-0.504-0.183-0.875-0.521-1.111
		c-0.33-0.234-0.766-0.395-1.284-0.465l-1.915-0.309c-0.197-0.029-0.354-0.086-0.474-0.172c-0.11-0.086-0.173-0.205-0.173-0.355
		c0-0.195,0.095-0.354,0.283-0.473c0.182-0.127,0.434-0.188,0.756-0.188c0.215-0.007,0.418,0.008,0.615,0.049
		c0.205,0.03,0.379,0.109,0.528,0.228c0.142,0.119,0.235,0.291,0.269,0.537H205.483L205.483,45.958z M210.979,48.375l-1.671-4.051
		h-2.246v5.627h1.48v-4.508h0.017l1.78,4.508h1.277l1.779-4.508h0.016v4.508h1.482v-5.627h-2.246L210.979,48.375z M220.253,47.769
		h-1.766l0.883-2.229L220.253,47.769z M221.123,49.952h1.646l-2.475-5.625h-1.846l-2.475,5.625h1.646l0.457-1.156h2.584
		L221.123,49.952z"/>
	<g>
		<line fill="none" x1="199.414" y1="51.34" x2="222.796" y2="51.34"/>
		<rect x="199.414" y="50.34" fill="#CF0A2C" width="23.385" height="2"/>
	</g>
</g>
</svg>
